<svg version="1.2" xmlns="http://www.w3.org/2000/svg" viewBox="0 0 1520 490" width="1520" height="490">
	<title>logo-jago-svg</title>
	<style>
		.s0 { fill: #ffffff } 
	</style>
	<path id="Layer" class="s0" d="m260.3 1c-21-4.3-42.9 5.8-54 25-2.6 4.5-4.5 9.4-5.7 14.4-4.9-19.5-20.3-35.4-39.8-39.4-21-4.3-42.9 5.8-54 25-2.6 4.5-4.5 9.4-5.7 14.4-4.9-19.5-20.3-35.4-39.8-39.4-21-4.3-42.9 5.8-54 25-11.1 19.2-9.4 44.5 4.3 61.8 13.7 17.4 36.9 24.1 57.1 16.5 16.2-6.1 28.2-20.5 32.4-37.4 1.8 7.5 5.1 14.7 10 20.9 13.7 17.4 36.9 24.1 57.1 16.5 16.2-6.1 28.2-20.5 32.4-37.4 1.8 7.5 5.2 14.7 10 20.9 13.7 17.4 36.9 24.1 57.2 16.5 20.1-7.6 34-28.2 34-50.6 0-25.3-17.7-47.8-41.5-52.7zm-164.2 260.9c5.3 23.4 18.6 45.2 41.9 51.9 22.2 6.3 46.9-3.9 58.3-24.9 6.8-12.6 6-26.8 5.9-40.8 0-9.3-0.1-18.7-0.1-28.1q0-15.5 0.1-31c0.1-13.2-0.3-26 6-38 8.7-16.7 26-26.9 44.1-26.1 18.3 0.7 35 12.7 42.3 30.3 4.8 11.6 4 24.3 4 36.7q0 15.3 0 30.7c0 22.1 1.4 45.2-2.8 66.9-9.5 50.4-42.9 94.3-88.2 114.5-45.3 20.2-98.9 14.8-139.7-14-20.1-14.1-36.7-33.7-47.6-56.4-10.8-22.4-17.4-50.4-13.2-75.5 3.1-18.7 17.2-34 35-37.8 18.5-3.9 37.8 5 47.5 21.9 3.5 6.2 5 12.8 6.5 19.7z"/>
	<path id="Layer" fill-rule="evenodd" class="s0" d="m1399.2 381.6c-66.8 0-120.8-54.9-120.8-122.9 0-68 54-122.9 120.8-122.9 66.8 0 120.8 54.9 120.8 122.9 0 68-54 122.9-120.8 122.9zm58-123.1c0-35.5-26-64.2-58.2-64.2-32.2 0-58.2 28.7-58.2 64.2 0 35.4 26 64.1 58.2 64.1 32.2 0 58.2-28.7 58.2-64.1zm-909 46.3c11.5 6.8 22.5 13.8 36.2 13 13.1-0.8 25.1-8 32.5-19.3 7-10.4 6.8-22.4 6.8-34.5 0-20.5 0-160.6 0-170.8 0-7.1-0.4-14.1 2.2-20.8 7.8-19.9 32.7-26.4 48.4-12.4 8.4 7.5 10.8 17.7 10.8 28.7 0 22 0.7 174.7-0.1 189.8-1.4 27.4-13.3 53.8-32 72.9-19.3 19.8-45.9 30.6-72.8 30.6-26 0-53.3-10.4-70.3-31.5-6.8-8.5-10.8-18.6-8.1-29.7 2.6-10.8 10.9-19.3 21.2-21.9 9.4-2.2 17.3 1.1 25.2 5.9zm439.9 46c0 17-13.2 30.7-29.5 30.7q-0.2 0-0.4 0-0.2 0.1-0.3 0.1-2.8 0-5.5-0.6c-19-3.5-34.8-15.2-44.6-31.2-19.2 20.3-45.5 32.3-75.9 32.3q-0.4 0-0.8-0.1-0.5 0.1-0.9 0.1c-63.2 0-109.2-51.8-109.2-123.2 0-71.3 46-123.1 109.2-123.1 28.2 0 51.6 10.3 67.1 27.7 2.1-15.6 14.9-27.7 30.4-27.7 17 0 30.8 14.4 30.8 32.1v128.4c0.1 11.6 6 22.2 15.4 28.1l-0.1 0.1c8.6 5.3 14.3 15.1 14.3 26.3zm-89.6-92.1c0-35.9-25.8-64.9-57.6-64.9-31.8 0-57.5 29-57.5 64.9 0 35.9 25.7 64.9 57.5 64.9 31.8 0 57.6-29 57.6-64.9zm346.4-90.6c0 0 0 181.2 0 181.2v13.9c-1.1 73.3-50.5 126.3-118.3 126.3-29.3 0-56.2-10.2-77.7-29.4-8-7.3-15.1-15.7-21.1-25-9.4-14.8-5.5-34.7 8.6-44.5 14.1-9.8 33.2-5.8 42.6 9 2.8 4.4 6.1 8.4 9.9 11.8 10.2 9.1 23.2 13.9 37.7 13.9 33.9 0 56.7-25.7 56.9-64.1v-7.6c-15.5 18.2-38.9 28.4-67.3 28.4-63.3 0-109.2-51.8-109.2-123.1 0-71.3 45.9-123.1 109.2-123.1 29.1 0 53.2 10.9 68.7 29.5 1.3-17.1 14.1-29.5 30-29.5 17.3 0 30 13.8 30 32.3zm-60.5 90.6c0-35.9-25.7-64.9-57.6-64.9-31.8 0-57.5 29-57.5 64.9 0 35.9 25.7 64.9 57.5 64.9 31.9 0 57.6-29 57.6-64.9z"/>
</svg>